<mxfile host="Electron" agent="Mozilla/5.0 (Windows NT 10.0; Win64; x64) AppleWebKit/537.36 (KHTML, like Gecko) draw.io/28.0.6 Chrome/138.0.7204.100 Electron/37.2.3 Safari/537.36" version="28.0.6">
  <diagram name="Página-1" id="9LKzk1PYuBJYExp0GI2d">
    <mxGraphModel dx="983" dy="580" grid="0" gridSize="10" guides="1" tooltips="1" connect="1" arrows="1" fold="1" page="1" pageScale="1" pageWidth="827" pageHeight="1169" math="0" shadow="0">
      <root>
        <mxCell id="0" />
        <mxCell id="1" parent="0" />
        <mxCell id="AykJ_ECSncTDlpv1-B_l-1" value="Revisión y actualización de Laptops" style="shape=table;startSize=30;container=1;collapsible=0;childLayout=tableLayout;fixedRows=1;rowLines=0;fontStyle=0;strokeColor=default;fontSize=14;fontFamily=Times New Roman;" vertex="1" parent="1">
          <mxGeometry x="33" y="30" width="265.7586206896552" height="102.27586206896555" as="geometry" />
        </mxCell>
        <mxCell id="AykJ_ECSncTDlpv1-B_l-2" value="" style="shape=tableRow;horizontal=0;startSize=0;swimlaneHead=0;swimlaneBody=0;top=0;left=0;bottom=0;right=0;collapsible=0;dropTarget=0;fillColor=none;points=[[0,0.5],[1,0.5]];portConstraint=eastwest;strokeColor=inherit;fontSize=16;fontFamily=Times New Roman;" vertex="1" parent="AykJ_ECSncTDlpv1-B_l-1">
          <mxGeometry y="30" width="265.7586206896552" height="25" as="geometry" />
        </mxCell>
        <mxCell id="AykJ_ECSncTDlpv1-B_l-3" value="&lt;font style=&quot;font-size: 14px;&quot;&gt;Detalle&lt;/font&gt;&lt;div&gt;&lt;br&gt;&lt;/div&gt;" style="shape=partialRectangle;html=1;whiteSpace=wrap;connectable=0;fillColor=none;top=0;left=0;bottom=0;right=0;overflow=hidden;pointerEvents=1;strokeColor=inherit;fontSize=16;fontFamily=Times New Roman;" vertex="1" parent="AykJ_ECSncTDlpv1-B_l-2">
          <mxGeometry width="76" height="25" as="geometry">
            <mxRectangle width="76" height="25" as="alternateBounds" />
          </mxGeometry>
        </mxCell>
        <mxCell id="AykJ_ECSncTDlpv1-B_l-4" value="&lt;font style=&quot;font-size: 14px;&quot;&gt;Ciclo 01-2025&lt;/font&gt;" style="shape=partialRectangle;html=1;whiteSpace=wrap;connectable=0;fillColor=none;top=0;left=0;bottom=0;right=0;align=left;spacingLeft=6;overflow=hidden;strokeColor=inherit;fontSize=16;fontFamily=Times New Roman;" vertex="1" parent="AykJ_ECSncTDlpv1-B_l-2">
          <mxGeometry x="76" width="190" height="25" as="geometry">
            <mxRectangle width="190" height="25" as="alternateBounds" />
          </mxGeometry>
        </mxCell>
        <mxCell id="AykJ_ECSncTDlpv1-B_l-5" value="" style="shape=tableRow;horizontal=0;startSize=0;swimlaneHead=0;swimlaneBody=0;top=0;left=0;bottom=0;right=0;collapsible=0;dropTarget=0;fillColor=none;points=[[0,0.5],[1,0.5]];portConstraint=eastwest;strokeColor=inherit;fontSize=16;fontFamily=Times New Roman;" vertex="1" parent="AykJ_ECSncTDlpv1-B_l-1">
          <mxGeometry y="55" width="265.7586206896552" height="27" as="geometry" />
        </mxCell>
        <mxCell id="AykJ_ECSncTDlpv1-B_l-6" value="&lt;font style=&quot;font-size: 14px;&quot;&gt;Encargado&lt;/font&gt;" style="shape=partialRectangle;html=1;whiteSpace=wrap;connectable=0;fillColor=none;top=0;left=0;bottom=0;right=0;overflow=hidden;strokeColor=inherit;fontSize=16;fontFamily=Times New Roman;" vertex="1" parent="AykJ_ECSncTDlpv1-B_l-5">
          <mxGeometry width="76" height="27" as="geometry">
            <mxRectangle width="76" height="27" as="alternateBounds" />
          </mxGeometry>
        </mxCell>
        <mxCell id="AykJ_ECSncTDlpv1-B_l-7" value="&lt;div&gt;&lt;span style=&quot;font-size: 14px;&quot;&gt;Luis Lemus&lt;/span&gt;&lt;/div&gt;" style="shape=partialRectangle;html=1;whiteSpace=wrap;connectable=0;fillColor=none;top=0;left=0;bottom=0;right=0;align=left;spacingLeft=6;overflow=hidden;strokeColor=inherit;fontSize=16;fontFamily=Times New Roman;" vertex="1" parent="AykJ_ECSncTDlpv1-B_l-5">
          <mxGeometry x="76" width="190" height="27" as="geometry">
            <mxRectangle width="190" height="27" as="alternateBounds" />
          </mxGeometry>
        </mxCell>
        <mxCell id="AykJ_ECSncTDlpv1-B_l-8" value="" style="shape=tableRow;horizontal=0;startSize=0;swimlaneHead=0;swimlaneBody=0;top=0;left=0;bottom=0;right=0;collapsible=0;dropTarget=0;fillColor=none;points=[[0,0.5],[1,0.5]];portConstraint=eastwest;strokeColor=inherit;fontSize=16;fontFamily=Times New Roman;" vertex="1" parent="AykJ_ECSncTDlpv1-B_l-1">
          <mxGeometry y="82" width="265.7586206896552" height="20" as="geometry" />
        </mxCell>
        <mxCell id="AykJ_ECSncTDlpv1-B_l-9" value="" style="shape=partialRectangle;html=1;whiteSpace=wrap;connectable=0;fillColor=none;top=0;left=0;bottom=0;right=0;overflow=hidden;strokeColor=inherit;fontSize=16;fontFamily=Times New Roman;" vertex="1" parent="AykJ_ECSncTDlpv1-B_l-8">
          <mxGeometry width="76" height="20" as="geometry">
            <mxRectangle width="76" height="20" as="alternateBounds" />
          </mxGeometry>
        </mxCell>
        <mxCell id="AykJ_ECSncTDlpv1-B_l-10" value="" style="shape=partialRectangle;html=1;whiteSpace=wrap;connectable=0;fillColor=none;top=0;left=0;bottom=0;right=0;align=left;spacingLeft=6;overflow=hidden;strokeColor=inherit;fontSize=16;fontFamily=Times New Roman;" vertex="1" parent="AykJ_ECSncTDlpv1-B_l-8">
          <mxGeometry x="76" width="190" height="20" as="geometry">
            <mxRectangle width="190" height="20" as="alternateBounds" />
          </mxGeometry>
        </mxCell>
        <mxCell id="AykJ_ECSncTDlpv1-B_l-15" value="" style="edgeStyle=orthogonalEdgeStyle;rounded=0;orthogonalLoop=1;jettySize=auto;html=1;" edge="1" parent="1" source="AykJ_ECSncTDlpv1-B_l-13" target="AykJ_ECSncTDlpv1-B_l-14">
          <mxGeometry relative="1" as="geometry" />
        </mxCell>
        <mxCell id="AykJ_ECSncTDlpv1-B_l-13" value="Revisión y actualización de Laptops" style="rounded=0;whiteSpace=wrap;html=1;fillColor=#dae8fc;strokeColor=#6c8ebf;fontFamily=Times New Roman;" vertex="1" parent="1">
          <mxGeometry x="351" y="169" width="126" height="44" as="geometry" />
        </mxCell>
        <mxCell id="AykJ_ECSncTDlpv1-B_l-17" value="" style="edgeStyle=orthogonalEdgeStyle;rounded=0;orthogonalLoop=1;jettySize=auto;html=1;" edge="1" parent="1" source="AykJ_ECSncTDlpv1-B_l-14" target="AykJ_ECSncTDlpv1-B_l-16">
          <mxGeometry relative="1" as="geometry" />
        </mxCell>
        <mxCell id="AykJ_ECSncTDlpv1-B_l-14" value="Área técnica solicita actualización de laptops cada 2 meses" style="whiteSpace=wrap;html=1;fontFamily=Times New Roman;rounded=0;" vertex="1" parent="1">
          <mxGeometry x="354" y="244" width="118" height="60" as="geometry" />
        </mxCell>
        <mxCell id="AykJ_ECSncTDlpv1-B_l-19" value="" style="edgeStyle=orthogonalEdgeStyle;rounded=0;orthogonalLoop=1;jettySize=auto;html=1;" edge="1" parent="1" source="AykJ_ECSncTDlpv1-B_l-16" target="AykJ_ECSncTDlpv1-B_l-18">
          <mxGeometry relative="1" as="geometry" />
        </mxCell>
        <mxCell id="AykJ_ECSncTDlpv1-B_l-16" value="Encargado de laptops prepara cronograma con fechas especificas de actualización" style="whiteSpace=wrap;html=1;fontFamily=Times New Roman;rounded=0;" vertex="1" parent="1">
          <mxGeometry x="353" y="335" width="120" height="60" as="geometry" />
        </mxCell>
        <mxCell id="AykJ_ECSncTDlpv1-B_l-21" value="" style="edgeStyle=orthogonalEdgeStyle;rounded=0;orthogonalLoop=1;jettySize=auto;html=1;" edge="1" parent="1" source="AykJ_ECSncTDlpv1-B_l-18" target="AykJ_ECSncTDlpv1-B_l-20">
          <mxGeometry relative="1" as="geometry" />
        </mxCell>
        <mxCell id="AykJ_ECSncTDlpv1-B_l-18" value="Registrar en bitácora (inventario) las actualizaciones realizadas (Office y sistema operativo)" style="whiteSpace=wrap;html=1;fontFamily=Times New Roman;rounded=0;" vertex="1" parent="1">
          <mxGeometry x="332.5" y="428" width="161" height="60" as="geometry" />
        </mxCell>
        <mxCell id="AykJ_ECSncTDlpv1-B_l-23" value="" style="edgeStyle=orthogonalEdgeStyle;rounded=0;orthogonalLoop=1;jettySize=auto;html=1;" edge="1" parent="1" source="AykJ_ECSncTDlpv1-B_l-20" target="AykJ_ECSncTDlpv1-B_l-22">
          <mxGeometry relative="1" as="geometry" />
        </mxCell>
        <mxCell id="AykJ_ECSncTDlpv1-B_l-20" value="Encargado informa por correo a Área Técnica y Dirección de Educación Virtual sobre finalización" style="whiteSpace=wrap;html=1;fontFamily=Times New Roman;rounded=0;" vertex="1" parent="1">
          <mxGeometry x="349.5" y="521" width="127" height="61" as="geometry" />
        </mxCell>
        <mxCell id="AykJ_ECSncTDlpv1-B_l-26" value="" style="edgeStyle=orthogonalEdgeStyle;rounded=0;orthogonalLoop=1;jettySize=auto;html=1;" edge="1" parent="1" source="AykJ_ECSncTDlpv1-B_l-22" target="AykJ_ECSncTDlpv1-B_l-25">
          <mxGeometry relative="1" as="geometry" />
        </mxCell>
        <mxCell id="AykJ_ECSncTDlpv1-B_l-22" value="¿Fallas?" style="rhombus;whiteSpace=wrap;html=1;fontFamily=Times New Roman;rounded=0;" vertex="1" parent="1">
          <mxGeometry x="372.5" y="615" width="81" height="80" as="geometry" />
        </mxCell>
        <mxCell id="AykJ_ECSncTDlpv1-B_l-28" style="edgeStyle=orthogonalEdgeStyle;rounded=0;orthogonalLoop=1;jettySize=auto;html=1;exitX=1;exitY=0.5;exitDx=0;exitDy=0;entryX=1;entryY=0.5;entryDx=0;entryDy=0;" edge="1" parent="1" source="AykJ_ECSncTDlpv1-B_l-25" target="AykJ_ECSncTDlpv1-B_l-16">
          <mxGeometry relative="1" as="geometry" />
        </mxCell>
        <mxCell id="AykJ_ECSncTDlpv1-B_l-25" value="Informar a Dirección para gestionar apoyo con Didática S.A" style="whiteSpace=wrap;html=1;fontFamily=Times New Roman;rounded=0;" vertex="1" parent="1">
          <mxGeometry x="497" y="699" width="132" height="43" as="geometry" />
        </mxCell>
        <mxCell id="AykJ_ECSncTDlpv1-B_l-27" value="SI" style="text;html=1;align=center;verticalAlign=middle;resizable=0;points=[];autosize=1;strokeColor=none;fillColor=none;" vertex="1" parent="1">
          <mxGeometry x="444" y="656" width="29" height="26" as="geometry" />
        </mxCell>
      </root>
    </mxGraphModel>
  </diagram>
</mxfile>
